<?xml version="1.0" encoding="UTF-8" standalone="no"?>
<!-- Created with Inkscape (http://www.inkscape.org/) -->

<svg
   xmlns:dc="http://purl.org/dc/elements/1.1/"
   xmlns:cc="http://creativecommons.org/ns#"
   xmlns:rdf="http://www.w3.org/1999/02/22-rdf-syntax-ns#"
   xmlns:svg="http://www.w3.org/2000/svg"
   xmlns="http://www.w3.org/2000/svg"
   xmlns:sodipodi="http://sodipodi.sourceforge.net/DTD/sodipodi-0.dtd"
   xmlns:inkscape="http://www.inkscape.org/namespaces/inkscape"
   width="140.88469mm"
   height="124.70055mm"
   viewBox="0 0 140.88468 124.70055"
   version="1.1"
   id="svg821"
   inkscape:version="0.92.4 (5da689c313, 2019-01-14)"
   sodipodi:docname="project_data_structure.svg"
   inkscape:export-filename="D:\work-ulaval\workshops\quebec_ocean_data_archive_2019\img\project_data_structure.png"
   inkscape:export-xdpi="302.11435"
   inkscape:export-ydpi="302.11435">
  <defs
     id="defs815">
    <marker
       inkscape:isstock="true"
       style="overflow:visible"
       id="marker5376"
       refX="0"
       refY="0"
       orient="auto"
       inkscape:stockid="TriangleOutM">
      <path
         inkscape:connector-curvature="0"
         transform="scale(0.4)"
         style="fill:#000000;fill-opacity:1;fill-rule:evenodd;stroke:none;stroke-width:1.00000003pt;stroke-opacity:1"
         d="M 5.77,0 -2.88,5 V -5 Z"
         id="path5374" />
    </marker>
    <marker
       inkscape:stockid="TriangleOutM"
       orient="auto"
       refY="0"
       refX="0"
       id="TriangleOutM"
       style="overflow:visible"
       inkscape:isstock="true"
       inkscape:collect="always">
      <path
         id="path2243"
         d="M 5.77,0 -2.88,5 V -5 Z"
         style="fill:#000000;fill-opacity:1;fill-rule:evenodd;stroke:#000000;stroke-width:1.00000003pt;stroke-opacity:1"
         transform="scale(0.4)"
         inkscape:connector-curvature="0" />
    </marker>
    <marker
       inkscape:stockid="DotM"
       orient="auto"
       refY="0"
       refX="0"
       id="DotM"
       style="overflow:visible"
       inkscape:isstock="true">
      <path
         id="path2162"
         d="m -2.5,-1 c 0,2.76 -2.24,5 -5,5 -2.76,0 -5,-2.24 -5,-5 0,-2.76 2.24,-5 5,-5 2.76,0 5,2.24 5,5 z"
         style="fill:#000000;fill-opacity:1;fill-rule:evenodd;stroke:#000000;stroke-width:1.00000003pt;stroke-opacity:1"
         transform="matrix(0.4,0,0,0.4,2.96,0.4)"
         inkscape:connector-curvature="0" />
    </marker>
    <marker
       inkscape:stockid="Arrow2Lend"
       orient="auto"
       refY="0"
       refX="0"
       id="Arrow2Lend"
       style="overflow:visible"
       inkscape:isstock="true">
      <path
         id="path2119"
         style="fill:#000000;fill-opacity:1;fill-rule:evenodd;stroke:#000000;stroke-width:0.625;stroke-linejoin:round;stroke-opacity:1"
         d="M 8.7185878,4.0337352 -2.2072895,0.01601326 8.7185884,-4.0017078 c -1.7454984,2.3720609 -1.7354408,5.6174519 -6e-7,8.035443 z"
         transform="matrix(-1.1,0,0,-1.1,-1.1,0)"
         inkscape:connector-curvature="0" />
    </marker>
    <marker
       inkscape:stockid="Arrow1Send"
       orient="auto"
       refY="0"
       refX="0"
       id="Arrow1Send"
       style="overflow:visible"
       inkscape:isstock="true">
      <path
         id="path2113"
         d="M 0,0 5,-5 -12.5,0 5,5 Z"
         style="fill:#000000;fill-opacity:1;fill-rule:evenodd;stroke:#000000;stroke-width:1.00000003pt;stroke-opacity:1"
         transform="matrix(-0.2,0,0,-0.2,-1.2,0)"
         inkscape:connector-curvature="0" />
    </marker>
    <marker
       inkscape:stockid="Arrow1Mend"
       orient="auto"
       refY="0"
       refX="0"
       id="Arrow1Mend"
       style="overflow:visible"
       inkscape:isstock="true">
      <path
         id="path2107"
         d="M 0,0 5,-5 -12.5,0 5,5 Z"
         style="fill:#000000;fill-opacity:1;fill-rule:evenodd;stroke:#000000;stroke-width:1.00000003pt;stroke-opacity:1"
         transform="matrix(-0.4,0,0,-0.4,-4,0)"
         inkscape:connector-curvature="0" />
    </marker>
    <marker
       inkscape:stockid="TriangleOutM"
       orient="auto"
       refY="0"
       refX="0"
       id="TriangleOutM-3"
       style="overflow:visible"
       inkscape:isstock="true">
      <path
         inkscape:connector-curvature="0"
         id="path2243-5"
         d="M 5.77,0 -2.88,5 V -5 Z"
         style="fill:#000000;fill-opacity:1;fill-rule:evenodd;stroke:#000000;stroke-width:1.00000003pt;stroke-opacity:1"
         transform="scale(0.4)" />
    </marker>
    <marker
       inkscape:stockid="TriangleOutM"
       orient="auto"
       refY="0"
       refX="0"
       id="TriangleOutM-2"
       style="overflow:visible"
       inkscape:isstock="true">
      <path
         inkscape:connector-curvature="0"
         id="path2243-9"
         d="M 5.77,0 -2.88,5 V -5 Z"
         style="fill:#000000;fill-opacity:1;fill-rule:evenodd;stroke:#000000;stroke-width:1.00000003pt;stroke-opacity:1"
         transform="scale(0.4)" />
    </marker>
    <marker
       inkscape:stockid="TriangleOutM"
       orient="auto"
       refY="0"
       refX="0"
       id="TriangleOutM-27"
       style="overflow:visible"
       inkscape:isstock="true">
      <path
         inkscape:connector-curvature="0"
         id="path2243-0"
         d="M 5.77,0 -2.88,5 V -5 Z"
         style="fill:#000000;fill-opacity:1;fill-rule:evenodd;stroke:#000000;stroke-width:1.00000003pt;stroke-opacity:1"
         transform="scale(0.4)" />
    </marker>
    <marker
       inkscape:stockid="TriangleOutM"
       orient="auto"
       refY="0"
       refX="0"
       id="TriangleOutM-36"
       style="overflow:visible"
       inkscape:isstock="true">
      <path
         inkscape:connector-curvature="0"
         id="path2243-06"
         d="M 5.77,0 -2.88,5 V -5 Z"
         style="fill:#000000;fill-opacity:1;fill-rule:evenodd;stroke:#000000;stroke-width:1.00000003pt;stroke-opacity:1"
         transform="scale(0.4)" />
    </marker>
    <marker
       inkscape:stockid="TriangleOutM"
       orient="auto"
       refY="0"
       refX="0"
       id="TriangleOutM-3-2"
       style="overflow:visible"
       inkscape:isstock="true">
      <path
         inkscape:connector-curvature="0"
         id="path2243-5-6"
         d="M 5.77,0 -2.88,5 V -5 Z"
         style="fill:#000000;fill-opacity:1;fill-rule:evenodd;stroke:#000000;stroke-width:1.00000003pt;stroke-opacity:1"
         transform="scale(0.4)" />
    </marker>
    <marker
       inkscape:stockid="TriangleOutM"
       orient="auto"
       refY="0"
       refX="0"
       id="TriangleOutM-2-1"
       style="overflow:visible"
       inkscape:isstock="true">
      <path
         inkscape:connector-curvature="0"
         id="path2243-9-8"
         d="M 5.77,0 -2.88,5 V -5 Z"
         style="fill:#000000;fill-opacity:1;fill-rule:evenodd;stroke:#000000;stroke-width:1.00000003pt;stroke-opacity:1"
         transform="scale(0.4)" />
    </marker>
    <marker
       inkscape:stockid="TriangleOutM"
       orient="auto"
       refY="0"
       refX="0"
       id="TriangleOutM-27-7"
       style="overflow:visible"
       inkscape:isstock="true">
      <path
         inkscape:connector-curvature="0"
         id="path2243-0-9"
         d="M 5.77,0 -2.88,5 V -5 Z"
         style="fill:#000000;fill-opacity:1;fill-rule:evenodd;stroke:#000000;stroke-width:1.00000003pt;stroke-opacity:1"
         transform="scale(0.4)" />
    </marker>
    <marker
       inkscape:stockid="TriangleOutM"
       orient="auto"
       refY="0"
       refX="0"
       id="TriangleOutM-23"
       style="overflow:visible"
       inkscape:isstock="true"
       inkscape:collect="always">
      <path
         id="path2243-6"
         d="M 5.77,0 -2.88,5 V -5 Z"
         style="fill:#000000;fill-opacity:1;fill-rule:evenodd;stroke:#000000;stroke-width:1.00000003pt;stroke-opacity:1"
         transform="scale(0.4)"
         inkscape:connector-curvature="0" />
    </marker>
    <marker
       inkscape:stockid="TriangleOutM"
       orient="auto"
       refY="0"
       refX="0"
       id="TriangleOutM-23-5"
       style="overflow:visible"
       inkscape:isstock="true"
       inkscape:collect="always">
      <path
         id="path2243-6-3"
         d="M 5.77,0 -2.88,5 V -5 Z"
         style="fill:#000000;fill-opacity:1;fill-rule:evenodd;stroke:#000000;stroke-width:1.00000003pt;stroke-opacity:1"
         transform="scale(0.4)"
         inkscape:connector-curvature="0" />
    </marker>
  </defs>
  <sodipodi:namedview
     id="base"
     pagecolor="#ffffff"
     bordercolor="#666666"
     borderopacity="1.0"
     inkscape:pageopacity="1"
     inkscape:pageshadow="2"
     inkscape:zoom="1.4"
     inkscape:cx="271.41608"
     inkscape:cy="216.90561"
     inkscape:document-units="mm"
     inkscape:current-layer="layer1"
     showgrid="false"
     inkscape:window-width="1920"
     inkscape:window-height="1017"
     inkscape:window-x="-8"
     inkscape:window-y="-8"
     inkscape:window-maximized="1"
     inkscape:snap-bbox="true"
     fit-margin-top="5"
     fit-margin-left="5"
     fit-margin-right="5"
     fit-margin-bottom="5"
     showborder="true"
     inkscape:snap-text-baseline="false" />
  <metadata
     id="metadata818">
    <rdf:RDF>
      <cc:Work
         rdf:about="">
        <dc:format>image/svg+xml</dc:format>
        <dc:type
           rdf:resource="http://purl.org/dc/dcmitype/StillImage" />
        <dc:title></dc:title>
      </cc:Work>
    </rdf:RDF>
  </metadata>
  <g
     inkscape:label="Layer 1"
     inkscape:groupmode="layer"
     id="layer1"
     transform="translate(-7.533497,-146.58659)">
    <path
       id="path2070"
       d="m 45.994853,164.9136 -4.23159,7.25413 a 3.7392157,3.7392157 0 0 1 -3.229958,1.8552 H 15.164217 c -1.082262,0 -1.756579,-1.17398 -1.21127,-2.10883 l 4.231588,-7.25414 a 3.7393909,3.7393909 0 0 1 3.230014,-1.85519 h 23.369089 c 1.082263,0 1.756581,1.17398 1.211215,2.10883 z m -24.580304,-3.97853 h 19.164379 v -2.80454 c 0,-1.54894 -1.255619,-2.80454 -2.804542,-2.80454 h -9.348478 l -3.739392,-3.7394 h -9.348475 c -1.548927,0 -2.804544,1.25563 -2.804544,2.80455 v 16.24566 l 4.03603,-6.91893 c 1.001281,-1.71649 2.857828,-2.7828 4.845022,-2.7828 z"
       inkscape:connector-curvature="0"
       style="fill:#3c3c3c;fill-opacity:1;stroke-width:0.05842798" />
    <path
       style="fill:#000000;fill-rule:evenodd;stroke:#000000;stroke-width:0.80570275;stroke-linecap:butt;stroke-linejoin:miter;stroke-miterlimit:4;stroke-dasharray:none;stroke-opacity:1"
       d="m 27.23464,173.99962 v 69.74694"
       id="path2081"
       inkscape:connector-curvature="0" />
    <path
       style="fill:#000000;fill-rule:evenodd;stroke:#000000;stroke-width:1;stroke-linecap:butt;stroke-linejoin:miter;stroke-miterlimit:0.2;stroke-dasharray:none;stroke-opacity:1;marker-end:url(#TriangleOutM);paint-order:normal"
       d="M 26.869348,185.72013 H 47.08458"
       id="path2081-5"
       inkscape:connector-curvature="0" />
    <path
       style="fill:#000000;fill-rule:evenodd;stroke:#000000;stroke-width:1;stroke-linecap:butt;stroke-linejoin:miter;stroke-miterlimit:0.2;stroke-dasharray:none;stroke-opacity:1;marker-end:url(#TriangleOutM-2);paint-order:normal"
       d="M 26.862732,243.26637 H 47.077964"
       id="path2081-5-1"
       inkscape:connector-curvature="0" />
    <text
       xml:space="preserve"
       style="font-style:normal;font-variant:normal;font-weight:900;font-stretch:normal;font-size:9.8777771px;line-height:125%;font-family:'Poppins Black';-inkscape-font-specification:'Poppins Black, Heavy';font-variant-ligatures:normal;font-variant-caps:normal;font-variant-numeric:normal;font-feature-settings:normal;text-align:start;letter-spacing:0px;word-spacing:0px;writing-mode:lr-tb;text-anchor:start;fill:#000000;fill-opacity:1;stroke:none;stroke-width:0.26458332px;stroke-linecap:butt;stroke-linejoin:miter;stroke-opacity:1"
       x="20.557337"
       y="171.17526"
       id="text2882"><tspan
         sodipodi:role="line"
         id="tspan2880"
         x="20.557337"
         y="171.17526"
         style="font-style:normal;font-variant:normal;font-weight:900;font-stretch:normal;font-size:7.05555534px;font-family:'Poppins Black';-inkscape-font-specification:'Poppins Black, Heavy';font-variant-ligatures:normal;font-variant-caps:normal;font-variant-numeric:normal;font-feature-settings:normal;text-align:start;writing-mode:lr-tb;text-anchor:start;fill:#ffffff;stroke-width:0.26458332px">data</tspan></text>
    <path
       id="path2070-1-5"
       d="m 87.186952,245.37521 -4.23159,7.25413 a 3.7392158,3.7392158 0 0 1 -3.22996,1.8552 H 56.356306 c -1.082262,0 -1.756579,-1.17398 -1.21127,-2.10883 l 4.231588,-7.25414 a 3.7393909,3.7393909 0 0 1 3.230014,-1.85519 h 23.369094 c 1.08225,0 1.75657,1.17398 1.21122,2.10883 z m -24.580314,-3.97853 h 19.164374 v -2.80454 c 0,-1.54894 -1.25562,-2.80454 -2.80453,-2.80454 h -9.348484 l -3.73939,-3.7394 H 56.53013 c -1.548927,0 -2.804544,1.25563 -2.804544,2.80455 v 16.24566 l 4.03603,-6.91893 c 1.001281,-1.71649 2.857828,-2.7828 4.845022,-2.7828 z"
       inkscape:connector-curvature="0"
       style="fill:#da291c;fill-opacity:1;stroke-width:0.05842798" />
    <text
       xml:space="preserve"
       style="font-style:normal;font-variant:normal;font-weight:900;font-stretch:normal;font-size:9.8777771px;line-height:125%;font-family:'Poppins Black';-inkscape-font-specification:'Poppins Black, Heavy';font-variant-ligatures:normal;font-variant-caps:normal;font-variant-numeric:normal;font-feature-settings:normal;text-align:start;letter-spacing:0px;word-spacing:0px;writing-mode:lr-tb;text-anchor:start;fill:#000000;fill-opacity:1;stroke:none;stroke-width:0.26458332px;stroke-linecap:butt;stroke-linejoin:miter;stroke-opacity:1"
       x="60.481236"
       y="251.64656"
       id="text2882-7"><tspan
         sodipodi:role="line"
         id="tspan2880-2"
         x="60.481236"
         y="251.64656"
         style="font-style:normal;font-variant:normal;font-weight:900;font-stretch:normal;font-size:7.05555534px;font-family:'Poppins Black';-inkscape-font-specification:'Poppins Black, Heavy';font-variant-ligatures:normal;font-variant-caps:normal;font-variant-numeric:normal;font-feature-settings:normal;text-align:start;writing-mode:lr-tb;text-anchor:start;fill:#ffffff;stroke-width:0.26458332px">clean</tspan></text>
    <path
       id="path2070-1"
       d="m 87.186948,187.82897 -4.23159,7.25413 a 3.7392158,3.7392158 0 0 1 -3.22996,1.8552 H 56.356306 c -1.082262,0 -1.756579,-1.17398 -1.21127,-2.10883 l 4.231588,-7.25414 a 3.7393909,3.7393909 0 0 1 3.230014,-1.85519 h 23.36909 c 1.08226,0 1.75658,1.17398 1.21122,2.10883 z m -24.58031,-3.97853 h 19.16438 v -2.80454 c 0,-1.54894 -1.25562,-2.80454 -2.80454,-2.80454 h -9.34848 l -3.73939,-3.7394 H 56.53013 c -1.548927,0 -2.804544,1.25563 -2.804544,2.80455 v 16.24566 l 4.03603,-6.91893 c 1.001281,-1.71649 2.857828,-2.7828 4.845022,-2.7828 z"
       inkscape:connector-curvature="0"
       style="fill:#015777;fill-opacity:1;stroke-width:0.05842798" />
    <text
       xml:space="preserve"
       style="font-style:normal;font-variant:normal;font-weight:900;font-stretch:normal;font-size:9.8777771px;line-height:125%;font-family:'Poppins Black';-inkscape-font-specification:'Poppins Black, Heavy';font-variant-ligatures:normal;font-variant-caps:normal;font-variant-numeric:normal;font-feature-settings:normal;text-align:start;letter-spacing:0px;word-spacing:0px;writing-mode:lr-tb;text-anchor:start;fill:#000000;fill-opacity:1;stroke:none;stroke-width:0.26458332px;stroke-linecap:butt;stroke-linejoin:miter;stroke-opacity:1"
       x="63.135746"
       y="193.53056"
       id="text2882-6"><tspan
         sodipodi:role="line"
         id="tspan2880-8"
         x="63.135746"
         y="193.53056"
         style="font-style:normal;font-variant:normal;font-weight:900;font-stretch:normal;font-size:7.05555534px;font-family:'Poppins Black';-inkscape-font-specification:'Poppins Black, Heavy';font-variant-ligatures:normal;font-variant-caps:normal;font-variant-numeric:normal;font-feature-settings:normal;text-align:start;writing-mode:lr-tb;text-anchor:start;fill:#ffffff;stroke-width:0.26458332px">raw</tspan></text>
    <path
       id="path1414-6-2-9"
       d="m 139.97435,165.93439 v -2.90741 h -4.3048 c -0.28626,0 -0.51657,0.22874 -0.51657,0.51306 v 9.91947 c 0,0.28433 0.23031,0.51308 0.51657,0.51308 h 7.23207 c 0.28626,0 0.51656,-0.22874 0.51656,-0.51308 v -7.01203 h -2.92726 c -0.2841,0 -0.51657,-0.23089 -0.51657,-0.51309 z m -2.06629,3.07847 c 0,0.0944 -0.077,0.17102 -0.1722,0.17102 h -0.17219 c -0.19028,0 -0.34438,0.15306 -0.34438,0.34205 v 0.6841 c 0,0.18898 0.1541,0.34205 0.34438,0.34205 h 0.17219 c 0.0952,0 0.1722,0.0765 0.1722,0.17102 v 0.34205 c 0,0.0945 -0.077,0.17103 -0.1722,0.17103 h -0.17219 c -0.5706,0 -1.03315,-0.45942 -1.03315,-1.02615 v -0.6841 c 0,-0.56674 0.46255,-1.02616 1.03315,-1.02616 h 0.17219 c 0.0952,0 0.1722,0.0765 0.1722,0.17103 z m 0.95286,2.22332 h -0.26411 c -0.0952,0 -0.17218,-0.0765 -0.17218,-0.17103 v -0.34205 c 0,-0.0944 0.077,-0.17102 0.17218,-0.17102 h 0.26411 c 0.12807,0 0.22406,-0.0748 0.22406,-0.14152 0,-0.0278 -0.0162,-0.0569 -0.0456,-0.0821 l -0.47118,-0.40127 c -0.1823,-0.15433 -0.28691,-0.37368 -0.28691,-0.60156 0,-0.45535 0.40939,-0.82563 0.91283,-0.82563 h 0.26366 c 0.0952,0 0.1722,0.0765 0.1722,0.17102 v 0.34205 c 0,0.0944 -0.077,0.17102 -0.1722,0.17102 h -0.26409 c -0.12807,0 -0.22407,0.0748 -0.22407,0.14152 0,0.0279 0.0162,0.0569 0.0456,0.0821 l 0.47117,0.40127 c 0.1823,0.15435 0.28691,0.37368 0.28691,0.60158 2.2e-4,0.45514 -0.40895,0.82562 -0.91239,0.82562 z m 1.8022,-2.56538 v 0.44467 c 0,0.43333 0.12269,0.85877 0.34438,1.21599 0.2217,-0.35702 0.34439,-0.78266 0.34439,-1.21599 v -0.44467 c 0,-0.0946 0.077,-0.17103 0.17219,-0.17103 h 0.34438 c 0.0952,0 0.17219,0.0765 0.17219,0.17103 v 0.44467 c 0,0.75849 -0.27722,1.47273 -0.7809,2.01146 -0.065,0.0694 -0.15647,0.10929 -0.25225,0.10929 -0.0958,0 -0.18725,-0.0397 -0.25226,-0.10929 -0.50366,-0.53873 -0.78089,-1.25297 -0.78089,-2.01146 v -0.44467 c 0,-0.0946 0.077,-0.17103 0.1722,-0.17103 h 0.34437 c 0.0952,0 0.1722,0.0765 0.1722,0.17103 z m 2.60439,-3.39913 -2.1072,-2.09505 c -0.0969,-0.0963 -0.22814,-0.14964 -0.3659,-0.14964 h -0.13129 v 2.73638 h 2.75506 v -0.13041 c 0,-0.13466 -0.0538,-0.26508 -0.15067,-0.36128 z"
       inkscape:connector-curvature="0"
       style="opacity:1;vector-effect:none;fill:#3c3c3c;fill-opacity:1;stroke-width:0.02145093;stroke-linecap:butt;stroke-linejoin:miter;stroke-miterlimit:4;stroke-dasharray:none;stroke-dashoffset:0;stroke-opacity:1" />
    <path
       id="path2070-1-4"
       d="m 132.1069,169.59016 -2.20289,3.7508 a 1.9465693,1.9333832 0 0 1 -1.68146,0.95924 h -12.16554 c -0.5634,0 -0.91444,-0.60702 -0.63056,-1.09038 l 2.20289,-3.7508 a 1.9466605,1.9334739 0 0 1 1.68149,-0.95923 h 12.16553 c 0.5634,0 0.91444,0.60701 0.63054,1.09037 z m -12.79607,-2.05711 h 9.97662 v -1.45011 c 0,-0.80088 -0.65364,-1.4501 -1.45999,-1.4501 h -4.86664 l -1.94666,-1.93348 h -4.86665 c -0.80635,0 -1.46001,0.64923 -1.46001,1.4501 v 8.39993 l 2.10109,-3.57748 c 0.52125,-0.88752 1.48775,-1.43886 2.52224,-1.43886 z"
       inkscape:connector-curvature="0"
       style="fill:#015777;fill-opacity:1;stroke-width:0.03031337" />
    <text
       xml:space="preserve"
       style="font-style:normal;font-variant:normal;font-weight:900;font-stretch:normal;font-size:5.12474871px;line-height:125%;font-family:'Poppins Black';-inkscape-font-specification:'Poppins Black, Heavy';font-variant-ligatures:normal;font-variant-caps:normal;font-variant-numeric:normal;font-feature-settings:normal;text-align:start;letter-spacing:0px;word-spacing:0px;writing-mode:lr-tb;text-anchor:start;fill:#000000;fill-opacity:1;stroke:none;stroke-width:0.13727008px;stroke-linecap:butt;stroke-linejoin:miter;stroke-opacity:1"
       x="118.95242"
       y="173.35384"
       id="text2882-6-0"
       transform="scale(1.0034043,0.99660725)"><tspan
         sodipodi:role="line"
         id="tspan2880-8-3"
         x="118.95242"
         y="173.35384"
         style="font-style:normal;font-variant:normal;font-weight:bold;font-stretch:normal;font-size:3.66053534px;font-family:Poppins;-inkscape-font-specification:'Poppins Bold';font-variant-ligatures:normal;font-variant-caps:normal;font-variant-numeric:normal;font-feature-settings:normal;text-align:start;writing-mode:lr-tb;text-anchor:start;fill:#ffffff;stroke-width:0.13727008px">chla</tspan></text>
    <path
       id="path1414-6-2-9-6"
       d="m 139.97435,183.15475 v -2.90743 h -4.3048 c -0.28626,0 -0.51657,0.22875 -0.51657,0.51307 v 9.91947 c 0,0.28433 0.23031,0.51308 0.51657,0.51308 h 7.23207 c 0.28626,0 0.51656,-0.22874 0.51656,-0.51308 v -7.01203 h -2.92726 c -0.2841,0 -0.51657,-0.23089 -0.51657,-0.51308 z m -2.06629,3.07846 c 0,0.0944 -0.077,0.17102 -0.1722,0.17102 h -0.17219 c -0.19028,0 -0.34438,0.15306 -0.34438,0.34205 v 0.6841 c 0,0.18898 0.1541,0.34204 0.34438,0.34204 h 0.17219 c 0.0952,0 0.1722,0.0765 0.1722,0.17103 v 0.34205 c 0,0.0946 -0.077,0.17103 -0.1722,0.17103 h -0.17219 c -0.5706,0 -1.03315,-0.45942 -1.03315,-1.02615 v -0.6841 c 0,-0.56675 0.46255,-1.02616 1.03315,-1.02616 h 0.17219 c 0.0952,0 0.1722,0.0765 0.1722,0.17104 z m 0.95286,2.22332 h -0.26411 c -0.0952,0 -0.17218,-0.0765 -0.17218,-0.17103 v -0.34205 c 0,-0.0944 0.077,-0.17103 0.17218,-0.17103 h 0.26411 c 0.12807,0 0.22406,-0.0748 0.22406,-0.14151 0,-0.0278 -0.0162,-0.0569 -0.0456,-0.0821 l -0.47118,-0.40127 c -0.1823,-0.15433 -0.28691,-0.37368 -0.28691,-0.60157 0,-0.45535 0.40939,-0.82562 0.91283,-0.82562 h 0.26366 c 0.0952,0 0.1722,0.0765 0.1722,0.17102 v 0.34205 c 0,0.0944 -0.077,0.17101 -0.1722,0.17101 h -0.26409 c -0.12807,0 -0.22407,0.0748 -0.22407,0.14154 0,0.0278 0.0162,0.0569 0.0456,0.0821 l 0.47117,0.40127 c 0.1823,0.15435 0.28691,0.3737 0.28691,0.60159 2.2e-4,0.45514 -0.40895,0.82563 -0.91239,0.82563 z m 1.8022,-2.56537 v 0.44466 c 0,0.43333 0.12269,0.85877 0.34438,1.21599 0.2217,-0.35702 0.34439,-0.78266 0.34439,-1.21599 v -0.44466 c 0,-0.0945 0.077,-0.17104 0.17219,-0.17104 h 0.34438 c 0.0952,0 0.17219,0.0765 0.17219,0.17104 v 0.44466 c 0,0.75849 -0.27722,1.47273 -0.7809,2.01146 -0.065,0.0694 -0.15647,0.10929 -0.25225,0.10929 -0.0958,0 -0.18725,-0.0397 -0.25226,-0.10929 -0.50366,-0.53873 -0.78089,-1.25297 -0.78089,-2.01146 v -0.44466 c 0,-0.0945 0.077,-0.17104 0.1722,-0.17104 h 0.34437 c 0.0952,0 0.1722,0.0765 0.1722,0.17104 z m 2.60439,-3.39914 -2.1072,-2.09506 c -0.0969,-0.0962 -0.22814,-0.14964 -0.3659,-0.14964 h -0.13129 v 2.73639 h 2.75506 v -0.1304 c 0,-0.13467 -0.0538,-0.26509 -0.15067,-0.36129 z"
       inkscape:connector-curvature="0"
       style="opacity:1;vector-effect:none;fill:#3c3c3c;fill-opacity:1;stroke-width:0.02594463;stroke-linecap:butt;stroke-linejoin:miter;stroke-miterlimit:4;stroke-dasharray:none;stroke-dashoffset:0;stroke-opacity:1" />
    <path
       id="path2070-1-4-9"
       d="m 132.1069,186.81051 -2.20289,3.75079 a 1.9465693,1.9333832 0 0 1 -1.68146,0.95925 h -12.16554 c -0.5634,0 -0.91444,-0.60702 -0.63056,-1.09038 l 2.20289,-3.7508 a 1.9466605,1.9334739 0 0 1 1.68149,-0.95923 h 12.16553 c 0.5634,0 0.91444,0.60701 0.63054,1.09037 z m -12.79607,-2.05711 h 9.97662 v -1.45011 c 0,-0.80089 -0.65364,-1.45011 -1.45999,-1.45011 h -4.86664 l -1.94666,-1.93347 h -4.86665 c -0.80635,0 -1.46001,0.64922 -1.46001,1.45011 v 8.39991 l 2.10109,-3.57747 c 0.52125,-0.88752 1.48775,-1.43886 2.52224,-1.43886 z"
       inkscape:connector-curvature="0"
       style="fill:#015777;fill-opacity:1;stroke-width:0.03031337" />
    <text
       xml:space="preserve"
       style="font-style:normal;font-variant:normal;font-weight:900;font-stretch:normal;font-size:5.12474871px;line-height:125%;font-family:'Poppins Black';-inkscape-font-specification:'Poppins Black, Heavy';font-variant-ligatures:normal;font-variant-caps:normal;font-variant-numeric:normal;font-feature-settings:normal;text-align:start;letter-spacing:0px;word-spacing:0px;writing-mode:lr-tb;text-anchor:start;fill:#000000;fill-opacity:1;stroke:none;stroke-width:0.13727008px;stroke-linecap:butt;stroke-linejoin:miter;stroke-opacity:1"
       x="117.20865"
       y="190.63281"
       id="text2882-6-0-7"
       transform="scale(1.0034043,0.99660725)"><tspan
         sodipodi:role="line"
         id="tspan2880-8-3-6"
         x="117.20865"
         y="190.63281"
         style="font-style:normal;font-variant:normal;font-weight:bold;font-stretch:normal;font-size:3.66053534px;font-family:Poppins;-inkscape-font-specification:'Poppins Bold';font-variant-ligatures:normal;font-variant-caps:normal;font-variant-numeric:normal;font-feature-settings:normal;text-align:start;writing-mode:lr-tb;text-anchor:start;fill:#ffffff;stroke-width:0.13727008px">optics</tspan></text>
    <path
       id="path1414-6-2-9-4"
       d="m 139.97435,200.3751 v -2.90743 h -4.3048 c -0.28626,0 -0.51657,0.22874 -0.51657,0.51307 v 9.91946 c 0,0.28434 0.23031,0.51308 0.51657,0.51308 h 7.23207 c 0.28626,0 0.51656,-0.22873 0.51656,-0.51308 v -7.01203 h -2.92726 c -0.2841,0 -0.51657,-0.23089 -0.51657,-0.51307 z m -2.06629,3.07845 c 0,0.0946 -0.077,0.17102 -0.1722,0.17102 h -0.17219 c -0.19028,0 -0.34438,0.15307 -0.34438,0.34205 v 0.68411 c 0,0.18898 0.1541,0.34204 0.34438,0.34204 h 0.17219 c 0.0952,0 0.1722,0.0765 0.1722,0.17103 v 0.34205 c 0,0.0944 -0.077,0.17102 -0.1722,0.17102 h -0.17219 c -0.5706,0 -1.03315,-0.45942 -1.03315,-1.02614 v -0.68411 c 0,-0.56674 0.46255,-1.02614 1.03315,-1.02614 h 0.17219 c 0.0952,0 0.1722,0.0765 0.1722,0.17101 z m 0.95286,2.22332 h -0.26411 c -0.0952,0 -0.17218,-0.0765 -0.17218,-0.17102 v -0.34205 c 0,-0.0944 0.077,-0.17103 0.17218,-0.17103 h 0.26411 c 0.12807,0 0.22406,-0.0748 0.22406,-0.14151 0,-0.0278 -0.0162,-0.0569 -0.0456,-0.0821 l -0.47118,-0.40127 c -0.1823,-0.15434 -0.28691,-0.37369 -0.28691,-0.60158 0,-0.45535 0.40939,-0.82563 0.91283,-0.82563 h 0.26366 c 0.0952,0 0.1722,0.0765 0.1722,0.17103 v 0.34204 c 0,0.0946 -0.077,0.17102 -0.1722,0.17102 h -0.26409 c -0.12807,0 -0.22407,0.0748 -0.22407,0.14152 0,0.0278 0.0162,0.0569 0.0456,0.0821 l 0.47117,0.40127 c 0.1823,0.15435 0.28691,0.37368 0.28691,0.60159 2.2e-4,0.45513 -0.40895,0.82561 -0.91239,0.82561 z m 1.8022,-2.56538 v 0.44467 c 0,0.43334 0.12269,0.85877 0.34438,1.21599 0.2217,-0.357 0.34439,-0.78265 0.34439,-1.21599 v -0.44467 c 0,-0.0944 0.077,-0.17101 0.17219,-0.17101 h 0.34438 c 0.0952,0 0.17219,0.0765 0.17219,0.17101 v 0.44467 c 0,0.75849 -0.27722,1.47275 -0.7809,2.01148 -0.065,0.0694 -0.15647,0.10928 -0.25225,0.10928 -0.0958,0 -0.18725,-0.0397 -0.25226,-0.10928 -0.50366,-0.53873 -0.78089,-1.25299 -0.78089,-2.01148 v -0.44467 c 0,-0.0944 0.077,-0.17101 0.1722,-0.17101 h 0.34437 c 0.0952,0 0.1722,0.0765 0.1722,0.17101 z m 2.60439,-3.39912 -2.1072,-2.09506 c -0.0969,-0.0962 -0.22814,-0.14964 -0.3659,-0.14964 h -0.13129 v 2.7364 h 2.75506 v -0.13041 c 0,-0.13468 -0.0538,-0.26509 -0.15067,-0.36129 z"
       inkscape:connector-curvature="0"
       style="opacity:1;vector-effect:none;fill:#3c3c3c;fill-opacity:1;stroke-width:0.02594463;stroke-linecap:butt;stroke-linejoin:miter;stroke-miterlimit:4;stroke-dasharray:none;stroke-dashoffset:0;stroke-opacity:1" />
    <path
       id="path2070-1-4-3"
       d="m 132.1069,204.03086 -2.20289,3.75079 a 1.9465693,1.9333832 0 0 1 -1.68146,0.95925 h -12.16554 c -0.5634,0 -0.91444,-0.60701 -0.63056,-1.09038 l 2.20289,-3.7508 a 1.9466605,1.9334739 0 0 1 1.68149,-0.95923 h 12.16553 c 0.5634,0 0.91444,0.607 0.63054,1.09037 z m -12.79607,-2.05712 h 9.97662 v -1.45009 c 0,-0.8009 -0.65364,-1.45012 -1.45999,-1.45012 h -4.86664 l -1.94666,-1.93348 h -4.86665 c -0.80635,0 -1.46001,0.64923 -1.46001,1.45012 v 8.39991 l 2.10109,-3.57748 c 0.52125,-0.88751 1.48775,-1.43886 2.52224,-1.43886 z"
       inkscape:connector-curvature="0"
       style="fill:#015777;fill-opacity:1;stroke-width:0.03031337" />
    <text
       xml:space="preserve"
       style="font-style:normal;font-variant:normal;font-weight:900;font-stretch:normal;font-size:5.12474871px;line-height:125%;font-family:'Poppins Black';-inkscape-font-specification:'Poppins Black, Heavy';font-variant-ligatures:normal;font-variant-caps:normal;font-variant-numeric:normal;font-feature-settings:normal;text-align:start;letter-spacing:0px;word-spacing:0px;writing-mode:lr-tb;text-anchor:start;fill:#000000;fill-opacity:1;stroke:none;stroke-width:0.13727008px;stroke-linecap:butt;stroke-linejoin:miter;stroke-opacity:1"
       x="119.96408"
       y="207.91179"
       id="text2882-6-0-1"
       transform="scale(1.0034043,0.99660725)"><tspan
         sodipodi:role="line"
         id="tspan2880-8-3-66"
         x="119.96408"
         y="207.91179"
         style="font-style:normal;font-variant:normal;font-weight:bold;font-stretch:normal;font-size:3.66053534px;font-family:Poppins;-inkscape-font-specification:'Poppins Bold';font-variant-ligatures:normal;font-variant-caps:normal;font-variant-numeric:normal;font-feature-settings:normal;text-align:start;writing-mode:lr-tb;text-anchor:start;fill:#ffffff;stroke-width:0.13727008px">ctd</tspan></text>
    <path
       style="fill:#000000;fill-rule:evenodd;stroke:#000000;stroke-width:1;stroke-linecap:butt;stroke-linejoin:miter;stroke-miterlimit:0.2;stroke-dasharray:none;stroke-opacity:1;marker-end:url(#TriangleOutM-23);paint-order:normal"
       d="M 88.672841,185.72013 H 108.88808"
       id="path2081-5-4"
       inkscape:connector-curvature="0" />
    <path
       style="fill:#000000;fill-rule:evenodd;stroke:#000000;stroke-width:1;stroke-linecap:butt;stroke-linejoin:miter;stroke-miterlimit:0.2;stroke-dasharray:none;stroke-opacity:1;marker-end:url(#TriangleOutM-23-5);paint-order:normal"
       d="M 88.672846,243.26637 H 108.88808"
       id="path2081-5-4-1"
       inkscape:connector-curvature="0" />
    <path
       id="path1414-6-2-9-3"
       d="m 139.97435,223.48063 v -2.90741 h -4.3048 c -0.28626,0 -0.51657,0.22874 -0.51657,0.51306 v 9.91947 c 0,0.28433 0.23031,0.51308 0.51657,0.51308 h 7.23207 c 0.28626,0 0.51656,-0.22874 0.51656,-0.51308 v -7.01203 h -2.92726 c -0.2841,0 -0.51657,-0.23089 -0.51657,-0.51309 z m -2.06629,3.07847 c 0,0.0944 -0.077,0.17102 -0.1722,0.17102 h -0.17219 c -0.19028,0 -0.34438,0.15306 -0.34438,0.34205 v 0.6841 c 0,0.18898 0.1541,0.34205 0.34438,0.34205 h 0.17219 c 0.0952,0 0.1722,0.0765 0.1722,0.17102 v 0.34205 c 0,0.0944 -0.077,0.17103 -0.1722,0.17103 h -0.17219 c -0.5706,0 -1.03315,-0.45942 -1.03315,-1.02615 v -0.6841 c 0,-0.56674 0.46255,-1.02616 1.03315,-1.02616 h 0.17219 c 0.0952,0 0.1722,0.0765 0.1722,0.17103 z m 0.95286,2.22332 h -0.26411 c -0.0952,0 -0.17218,-0.0765 -0.17218,-0.17103 v -0.34205 c 0,-0.0944 0.077,-0.17102 0.17218,-0.17102 h 0.26411 c 0.12807,0 0.22406,-0.0748 0.22406,-0.14152 0,-0.0278 -0.0162,-0.0569 -0.0456,-0.0821 l -0.47118,-0.40127 c -0.1823,-0.15434 -0.28691,-0.37368 -0.28691,-0.60156 0,-0.45535 0.40939,-0.82563 0.91283,-0.82563 h 0.26366 c 0.0952,0 0.1722,0.0765 0.1722,0.17102 v 0.34205 c 0,0.0944 -0.077,0.17102 -0.1722,0.17102 h -0.26409 c -0.12807,0 -0.22407,0.0748 -0.22407,0.14152 0,0.0279 0.0162,0.0569 0.0456,0.0821 l 0.47117,0.40127 c 0.1823,0.15435 0.28691,0.37368 0.28691,0.60158 2.2e-4,0.45514 -0.40895,0.82562 -0.91239,0.82562 z m 1.8022,-2.56538 v 0.44467 c 0,0.43333 0.12269,0.85876 0.34438,1.21599 0.2217,-0.35702 0.34439,-0.78266 0.34439,-1.21599 v -0.44467 c 0,-0.0946 0.077,-0.17103 0.17219,-0.17103 h 0.34438 c 0.0952,0 0.17219,0.0765 0.17219,0.17103 v 0.44467 c 0,0.75849 -0.27722,1.47273 -0.7809,2.01146 -0.065,0.0694 -0.15647,0.10929 -0.25225,0.10929 -0.0958,0 -0.18725,-0.0397 -0.25226,-0.10929 -0.50366,-0.53873 -0.78089,-1.25297 -0.78089,-2.01146 v -0.44467 c 0,-0.0946 0.077,-0.17103 0.1722,-0.17103 h 0.34437 c 0.0952,0 0.1722,0.0765 0.1722,0.17103 z m 2.60439,-3.39913 -2.1072,-2.09505 c -0.0969,-0.0963 -0.22814,-0.14964 -0.3659,-0.14964 h -0.13129 v 2.73638 h 2.75506 v -0.13041 c 0,-0.13466 -0.0538,-0.26508 -0.15067,-0.36128 z"
       inkscape:connector-curvature="0"
       style="opacity:1;vector-effect:none;fill:#3c3c3c;fill-opacity:1;stroke-width:0.02145093;stroke-linecap:butt;stroke-linejoin:miter;stroke-miterlimit:4;stroke-dasharray:none;stroke-dashoffset:0;stroke-opacity:1" />
    <path
       id="path2070-1-4-35"
       d="m 132.1069,227.1364 -2.20289,3.7508 a 1.9465693,1.9333832 0 0 1 -1.68146,0.95924 h -12.16554 c -0.5634,0 -0.91444,-0.60702 -0.63056,-1.09038 l 2.20289,-3.7508 a 1.9466605,1.9334739 0 0 1 1.68149,-0.95924 h 12.16553 c 0.5634,0 0.91444,0.60702 0.63054,1.09038 z m -12.79607,-2.05711 h 9.97662 v -1.45011 c 0,-0.80088 -0.65364,-1.4501 -1.45999,-1.4501 h -4.86664 l -1.94666,-1.93348 h -4.86665 c -0.80635,0 -1.46001,0.64923 -1.46001,1.4501 v 8.39993 l 2.10109,-3.57748 c 0.52125,-0.88752 1.48775,-1.43886 2.52224,-1.43886 z"
       inkscape:connector-curvature="0"
       style="fill:#da291c;fill-opacity:1;stroke-width:0.03031337" />
    <text
       xml:space="preserve"
       style="font-style:normal;font-variant:normal;font-weight:900;font-stretch:normal;font-size:5.12474871px;line-height:125%;font-family:'Poppins Black';-inkscape-font-specification:'Poppins Black, Heavy';font-variant-ligatures:normal;font-variant-caps:normal;font-variant-numeric:normal;font-feature-settings:normal;text-align:start;letter-spacing:0px;word-spacing:0px;writing-mode:lr-tb;text-anchor:start;fill:#000000;fill-opacity:1;stroke:none;stroke-width:0.13727008px;stroke-linecap:butt;stroke-linejoin:miter;stroke-opacity:1"
       x="118.95242"
       y="231.09598"
       id="text2882-6-0-0"
       transform="scale(1.0034043,0.99660725)"><tspan
         sodipodi:role="line"
         id="tspan2880-8-3-1"
         x="118.95242"
         y="231.09598"
         style="font-style:normal;font-variant:normal;font-weight:bold;font-stretch:normal;font-size:3.66053534px;font-family:Poppins;-inkscape-font-specification:'Poppins Bold';font-variant-ligatures:normal;font-variant-caps:normal;font-variant-numeric:normal;font-feature-settings:normal;text-align:start;writing-mode:lr-tb;text-anchor:start;fill:#ffffff;stroke-width:0.13727008px">chla</tspan></text>
    <path
       id="path1414-6-2-9-6-2"
       d="m 139.97435,240.70099 v -2.90743 h -4.3048 c -0.28626,0 -0.51657,0.22875 -0.51657,0.51307 v 9.91947 c 0,0.28433 0.23031,0.51308 0.51657,0.51308 h 7.23207 c 0.28626,0 0.51656,-0.22874 0.51656,-0.51308 v -7.01203 h -2.92726 c -0.2841,0 -0.51657,-0.23089 -0.51657,-0.51308 z m -2.06629,3.07846 c 0,0.0944 -0.077,0.17102 -0.1722,0.17102 h -0.17219 c -0.19028,0 -0.34438,0.15306 -0.34438,0.34205 v 0.6841 c 0,0.18898 0.1541,0.34204 0.34438,0.34204 h 0.17219 c 0.0952,0 0.1722,0.0765 0.1722,0.17103 v 0.34205 c 0,0.0946 -0.077,0.17103 -0.1722,0.17103 h -0.17219 c -0.5706,0 -1.03315,-0.45942 -1.03315,-1.02615 v -0.6841 c 0,-0.56675 0.46255,-1.02616 1.03315,-1.02616 h 0.17219 c 0.0952,0 0.1722,0.0765 0.1722,0.17104 z m 0.95286,2.22332 h -0.26411 c -0.0952,0 -0.17218,-0.0765 -0.17218,-0.17103 v -0.34205 c 0,-0.0944 0.077,-0.17103 0.17218,-0.17103 h 0.26411 c 0.12807,0 0.22406,-0.0748 0.22406,-0.14151 0,-0.0278 -0.0162,-0.0569 -0.0456,-0.0821 l -0.47118,-0.40127 c -0.1823,-0.15433 -0.28691,-0.37368 -0.28691,-0.60158 0,-0.45534 0.40939,-0.82561 0.91283,-0.82561 h 0.26366 c 0.0952,0 0.1722,0.0765 0.1722,0.17102 v 0.34205 c 0,0.0944 -0.077,0.17101 -0.1722,0.17101 h -0.26409 c -0.12807,0 -0.22407,0.0748 -0.22407,0.14153 0,0.0279 0.0162,0.0569 0.0456,0.0821 l 0.47117,0.40127 c 0.1823,0.15435 0.28691,0.3737 0.28691,0.60159 2.2e-4,0.45514 -0.40895,0.82563 -0.91239,0.82563 z m 1.8022,-2.56537 v 0.44466 c 0,0.43333 0.12269,0.85877 0.34438,1.21599 0.2217,-0.35702 0.34439,-0.78266 0.34439,-1.21599 v -0.44466 c 0,-0.0944 0.077,-0.17104 0.17219,-0.17104 h 0.34438 c 0.0952,0 0.17219,0.0765 0.17219,0.17104 v 0.44466 c 0,0.75849 -0.27722,1.47273 -0.7809,2.01146 -0.065,0.0694 -0.15647,0.10929 -0.25225,0.10929 -0.0958,0 -0.18725,-0.0397 -0.25226,-0.10929 -0.50366,-0.53873 -0.78089,-1.25297 -0.78089,-2.01146 v -0.44466 c 0,-0.0944 0.077,-0.17104 0.1722,-0.17104 h 0.34437 c 0.0952,0 0.1722,0.0765 0.1722,0.17104 z m 2.60439,-3.39914 -2.1072,-2.09506 c -0.0969,-0.0962 -0.22814,-0.14964 -0.3659,-0.14964 h -0.13129 v 2.73639 h 2.75506 v -0.1304 c 0,-0.13467 -0.0538,-0.26509 -0.15067,-0.36129 z"
       inkscape:connector-curvature="0"
       style="opacity:1;vector-effect:none;fill:#3c3c3c;fill-opacity:1;stroke-width:0.02594463;stroke-linecap:butt;stroke-linejoin:miter;stroke-miterlimit:4;stroke-dasharray:none;stroke-dashoffset:0;stroke-opacity:1" />
    <path
       id="path2070-1-4-9-6"
       d="m 132.1069,244.35675 -2.20289,3.75079 a 1.9465693,1.9333832 0 0 1 -1.68146,0.95925 h -12.16554 c -0.5634,0 -0.91444,-0.60702 -0.63056,-1.09038 l 2.20289,-3.7508 a 1.9466605,1.9334739 0 0 1 1.68149,-0.95923 h 12.16553 c 0.5634,0 0.91444,0.60701 0.63054,1.09037 z m -12.79607,-2.05711 h 9.97662 v -1.45011 c 0,-0.80089 -0.65364,-1.45011 -1.45999,-1.45011 h -4.86664 l -1.94666,-1.93347 h -4.86665 c -0.80635,0 -1.46001,0.64922 -1.46001,1.45011 v 8.39991 l 2.10109,-3.57747 c 0.52125,-0.88752 1.48775,-1.43886 2.52224,-1.43886 z"
       inkscape:connector-curvature="0"
       style="fill:#da291c;fill-opacity:1;stroke-width:0.03031337" />
    <text
       xml:space="preserve"
       style="font-style:normal;font-variant:normal;font-weight:900;font-stretch:normal;font-size:5.12474871px;line-height:125%;font-family:'Poppins Black';-inkscape-font-specification:'Poppins Black, Heavy';font-variant-ligatures:normal;font-variant-caps:normal;font-variant-numeric:normal;font-feature-settings:normal;text-align:start;letter-spacing:0px;word-spacing:0px;writing-mode:lr-tb;text-anchor:start;fill:#000000;fill-opacity:1;stroke:none;stroke-width:0.13727008px;stroke-linecap:butt;stroke-linejoin:miter;stroke-opacity:1"
       x="117.20865"
       y="248.37495"
       id="text2882-6-0-7-0"
       transform="scale(1.0034043,0.99660725)"><tspan
         sodipodi:role="line"
         id="tspan2880-8-3-6-6"
         x="117.20865"
         y="248.37495"
         style="font-style:normal;font-variant:normal;font-weight:bold;font-stretch:normal;font-size:3.66053534px;font-family:Poppins;-inkscape-font-specification:'Poppins Bold';font-variant-ligatures:normal;font-variant-caps:normal;font-variant-numeric:normal;font-feature-settings:normal;text-align:start;writing-mode:lr-tb;text-anchor:start;fill:#ffffff;stroke-width:0.13727008px">optics</tspan></text>
    <path
       id="path1414-6-2-9-4-9"
       d="m 139.97435,257.92134 v -2.90743 h -4.3048 c -0.28626,0 -0.51657,0.22874 -0.51657,0.51307 v 9.91946 c 0,0.28434 0.23031,0.51308 0.51657,0.51308 h 7.23207 c 0.28626,0 0.51656,-0.22873 0.51656,-0.51308 v -7.01203 h -2.92726 c -0.2841,0 -0.51657,-0.23089 -0.51657,-0.51307 z m -2.06629,3.07845 c 0,0.0946 -0.077,0.17102 -0.1722,0.17102 h -0.17219 c -0.19028,0 -0.34438,0.15307 -0.34438,0.34205 v 0.68411 c 0,0.18898 0.1541,0.34204 0.34438,0.34204 h 0.17219 c 0.0952,0 0.1722,0.0765 0.1722,0.17103 v 0.34205 c 0,0.0944 -0.077,0.17102 -0.1722,0.17102 h -0.17219 c -0.5706,0 -1.03315,-0.45942 -1.03315,-1.02614 v -0.68411 c 0,-0.56674 0.46255,-1.02614 1.03315,-1.02614 h 0.17219 c 0.0952,0 0.1722,0.0765 0.1722,0.17101 z m 0.95286,2.22332 h -0.26411 c -0.0952,0 -0.17218,-0.0765 -0.17218,-0.17102 v -0.34205 c 0,-0.0944 0.077,-0.17103 0.17218,-0.17103 h 0.26411 c 0.12807,0 0.22406,-0.0748 0.22406,-0.14151 0,-0.0278 -0.0162,-0.0569 -0.0456,-0.082 l -0.47118,-0.40127 c -0.1823,-0.15434 -0.28691,-0.37369 -0.28691,-0.60158 0,-0.45535 0.40939,-0.82563 0.91283,-0.82563 h 0.26366 c 0.0952,0 0.1722,0.0765 0.1722,0.17103 v 0.34204 c 0,0.0946 -0.077,0.17102 -0.1722,0.17102 h -0.26409 c -0.12807,0 -0.22407,0.0748 -0.22407,0.14152 0,0.0279 0.0162,0.0569 0.0456,0.0821 l 0.47117,0.40127 c 0.1823,0.15435 0.28691,0.37368 0.28691,0.60159 2.2e-4,0.45513 -0.40895,0.82561 -0.91239,0.82561 z m 1.8022,-2.56538 v 0.44467 c 0,0.43334 0.12269,0.85877 0.34438,1.21599 0.2217,-0.357 0.34439,-0.78265 0.34439,-1.21599 v -0.44467 c 0,-0.0944 0.077,-0.17101 0.17219,-0.17101 h 0.34438 c 0.0952,0 0.17219,0.0765 0.17219,0.17101 v 0.44467 c 0,0.75849 -0.27722,1.47275 -0.7809,2.01148 -0.065,0.0694 -0.15647,0.10928 -0.25225,0.10928 -0.0958,0 -0.18725,-0.0397 -0.25226,-0.10928 -0.50366,-0.53873 -0.78089,-1.25299 -0.78089,-2.01148 v -0.44467 c 0,-0.0944 0.077,-0.17101 0.1722,-0.17101 h 0.34437 c 0.0952,0 0.1722,0.0765 0.1722,0.17101 z m 2.60439,-3.39912 -2.1072,-2.09506 c -0.0969,-0.0962 -0.22814,-0.14964 -0.3659,-0.14964 h -0.13129 v 2.73639 h 2.75506 v -0.1304 c 0,-0.13468 -0.0538,-0.26509 -0.15067,-0.36129 z"
       inkscape:connector-curvature="0"
       style="opacity:1;vector-effect:none;fill:#3c3c3c;fill-opacity:1;stroke-width:0.02594463;stroke-linecap:butt;stroke-linejoin:miter;stroke-miterlimit:4;stroke-dasharray:none;stroke-dashoffset:0;stroke-opacity:1" />
    <path
       id="path2070-1-4-3-8"
       d="m 132.1069,261.5771 -2.20289,3.75079 a 1.9465693,1.9333832 0 0 1 -1.68146,0.95925 h -12.16554 c -0.5634,0 -0.91444,-0.60702 -0.63056,-1.09038 l 2.20289,-3.7508 a 1.9466605,1.9334739 0 0 1 1.68149,-0.95923 h 12.16553 c 0.5634,0 0.91444,0.607 0.63054,1.09037 z m -12.79607,-2.05712 h 9.97662 v -1.45009 c 0,-0.8009 -0.65364,-1.45012 -1.45999,-1.45012 h -4.86664 l -1.94666,-1.93348 h -4.86665 c -0.80635,0 -1.46001,0.64923 -1.46001,1.45012 v 8.39991 l 2.10109,-3.57748 c 0.52125,-0.88751 1.48775,-1.43886 2.52224,-1.43886 z"
       inkscape:connector-curvature="0"
       style="fill:#da291c;fill-opacity:1;stroke-width:0.03031337" />
    <text
       xml:space="preserve"
       style="font-style:normal;font-variant:normal;font-weight:900;font-stretch:normal;font-size:5.12474871px;line-height:125%;font-family:'Poppins Black';-inkscape-font-specification:'Poppins Black, Heavy';font-variant-ligatures:normal;font-variant-caps:normal;font-variant-numeric:normal;font-feature-settings:normal;text-align:start;letter-spacing:0px;word-spacing:0px;writing-mode:lr-tb;text-anchor:start;fill:#000000;fill-opacity:1;stroke:none;stroke-width:0.13727008px;stroke-linecap:butt;stroke-linejoin:miter;stroke-opacity:1"
       x="119.96408"
       y="265.65393"
       id="text2882-6-0-1-7"
       transform="scale(1.0034043,0.99660725)"><tspan
         sodipodi:role="line"
         id="tspan2880-8-3-66-8"
         x="119.96408"
         y="265.65393"
         style="font-style:normal;font-variant:normal;font-weight:bold;font-stretch:normal;font-size:3.66053534px;font-family:Poppins;-inkscape-font-specification:'Poppins Bold';font-variant-ligatures:normal;font-variant-caps:normal;font-variant-numeric:normal;font-feature-settings:normal;text-align:start;writing-mode:lr-tb;text-anchor:start;fill:#ffffff;stroke-width:0.13727008px">ctd</tspan></text>
  </g>
</svg>
